<svg width="259" height="299" viewBox="0 0 259 299" fill="none" xmlns="http://www.w3.org/2000/svg">
<path d="M282.877 33.1373C305.714 78.7752 320.923 122.806 327.061 157.092C330.13 174.239 330.925 188.919 329.288 200.133C327.647 211.365 323.589 218.996 317.074 222.256C310.559 225.516 302.018 224.19 292.045 218.769C282.088 213.357 270.815 203.92 258.932 191.184C235.169 165.717 209.046 127.147 186.209 81.5094C163.372 35.8714 148.162 -8.15957 142.025 -42.4457C138.955 -59.5921 138.16 -74.2722 139.798 -85.4865C141.438 -96.7182 145.496 -104.349 152.011 -107.609C158.526 -110.869 167.067 -109.543 177.04 -104.122C186.997 -98.71 198.27 -89.273 210.154 -76.5371C233.916 -51.0704 260.04 -12.5007 282.877 33.1373Z" stroke="#66DED4"/>
<path d="M252.126 6.23038C300.545 22.3531 342.435 42.7329 371.019 62.637C385.313 72.5909 396.256 82.4092 403.028 91.4968C409.81 100.599 412.336 108.864 410.035 115.776C407.733 122.688 400.756 127.79 389.871 131.008C379.003 134.222 364.359 135.521 346.95 134.918C312.14 133.713 266.395 124.912 217.976 108.789C169.557 92.6665 127.668 72.2866 99.0837 52.3826C84.789 42.4286 73.8464 32.6104 67.0746 23.5228C60.2923 14.421 57.766 6.1553 60.0676 -0.756715C62.3692 -7.66873 69.3464 -12.77 80.2313 -15.9888C91.0992 -19.2027 105.744 -20.501 123.152 -19.8983C157.962 -18.6932 203.707 -9.89234 252.126 6.23038Z" stroke="#66DED4"/>
<path d="M285.635 74.9071C269.513 123.326 249.133 165.216 229.229 193.799C219.275 208.094 209.457 219.037 200.369 225.809C191.267 232.591 183.002 235.117 176.09 232.816C169.178 230.514 164.076 223.537 160.857 212.652C157.644 201.784 156.345 187.14 156.948 169.731C158.153 134.921 166.954 89.1759 183.077 40.7568C199.199 -7.66229 219.579 -49.5517 239.483 -78.1355C249.437 -92.4302 259.255 -103.373 268.343 -110.145C277.445 -116.927 285.711 -119.453 292.623 -117.152C299.535 -114.85 304.636 -107.873 307.855 -96.988C311.069 -86.12 312.367 -71.4757 311.764 -54.0672C310.559 -19.257 301.758 26.488 285.635 74.9071Z" stroke="#66DED4"/>
</svg>
