<svg width="15" height="15" viewBox="0 0 15 15" fill="none" xmlns="http://www.w3.org/2000/svg">
<path d="M9.41875 1.25H5.5625C3.875 1.25 2.5 1.91875 2.5 3.61875V13.1062C2.5 13.4562 2.78125 13.7437 3.13125 13.7437C3.2375 13.7437 3.34437 13.7119 3.4375 13.6625L7.49375 11.6375L11.5438 13.6625C11.6938 13.75 11.875 13.775 12.0375 13.725C12.2063 13.675 12.3438 13.5625 12.425 13.4125C12.475 13.3187 12.5 13.2125 12.5 13.1062V3.61875C12.4813 1.91875 11.1125 1.25 9.41875 1.25" fill="white"/>
<path d="M3.4375 13.6625L3.2141 13.215L3.20328 13.2208L3.4375 13.6625ZM7.49375 11.6375L7.71736 11.1903L7.49392 11.0786L7.27042 11.1901L7.49375 11.6375ZM11.5438 13.6625L11.7957 13.2306L11.7818 13.2225L11.7674 13.2153L11.5438 13.6625ZM12.0375 13.725L11.8954 13.2456L11.8905 13.2471L12.0375 13.725ZM12.425 13.4125L12.8647 13.6506L12.8662 13.6478L12.425 13.4125ZM12.5 3.61875L13 3.61875L13 3.61324L12.5 3.61875ZM9.41875 0.75H5.5625V1.75H9.41875V0.75ZM5.5625 0.75C4.66473 0.75 3.78555 0.925975 3.11601 1.38428C2.41898 1.86141 2 2.61138 2 3.61875H3C3 2.92612 3.26852 2.49172 3.68086 2.20947C4.1207 1.9084 4.77277 1.75 5.5625 1.75V0.75ZM2 3.61875V13.1062H3V3.61875H2ZM2 13.1062C2 13.726 2.49872 14.2437 3.13125 14.2437V13.2437C3.06378 13.2437 3 13.1865 3 13.1062H2ZM3.13125 14.2437C3.33455 14.2437 3.52139 14.184 3.67172 14.1043L3.20328 13.2208C3.16736 13.2398 3.14045 13.2437 3.13125 13.2437V14.2437ZM3.66083 14.1099L7.71708 12.0849L7.27042 11.1901L3.21417 13.2151L3.66083 14.1099ZM7.27014 12.0847L11.3201 14.1097L11.7674 13.2153L7.71736 11.1903L7.27014 12.0847ZM11.2918 14.0944C11.5535 14.247 11.8788 14.297 12.1845 14.2029L11.8905 13.2471C11.8712 13.253 11.834 13.253 11.7957 13.2306L11.2918 14.0944ZM12.1795 14.2044C12.4751 14.1168 12.7199 13.9178 12.8646 13.6506L11.9854 13.1744C11.9676 13.2072 11.9374 13.2332 11.8955 13.2456L12.1795 14.2044ZM12.8662 13.6478C12.9571 13.4774 13 13.2896 13 13.1062H12C12 13.1354 11.9929 13.1601 11.9838 13.1772L12.8662 13.6478ZM13 13.1062V3.61875H12V13.1062H13ZM13 3.61324C12.9889 2.608 12.567 1.8601 11.8694 1.38391C11.1985 0.925983 10.3197 0.75 9.41875 0.75V1.75C10.2116 1.75 10.864 1.90839 11.3056 2.20984C11.7205 2.49302 11.9924 2.9295 12 3.62426L13 3.61324Z" fill="#199A8E"/>
</svg>
