<svg width="11" height="11" viewBox="0 0 11 11" fill="none" xmlns="http://www.w3.org/2000/svg">
<path fill-rule="evenodd" clip-rule="evenodd" d="M0.895874 4.5888C0.895874 2.0972 2.97798 0.0833435 5.49649 0.0833435C8.02211 0.0833435 10.1042 2.0972 10.1042 4.5888C10.1042 5.84434 9.64759 7.00998 8.89602 7.99795C8.0669 9.08775 7.04496 10.0373 5.89467 10.7826C5.6314 10.9548 5.39381 10.9678 5.10487 10.7826C3.94802 10.0373 2.92609 9.08775 2.10406 7.99795C1.35195 7.00998 0.895874 5.84434 0.895874 4.5888ZM3.98025 4.72907C3.98025 5.56375 4.66135 6.22024 5.49649 6.22024C6.33217 6.22024 7.01983 5.56375 7.01983 4.72907C7.01983 3.90089 6.33217 3.21245 5.49649 3.21245C4.66135 3.21245 3.98025 3.90089 3.98025 4.72907Z" fill="#ADADAD"/>
</svg>
